<?xml version="1.0" encoding="UTF-8" standalone="no"?>
<svg
   xmlns:dc="http://purl.org/dc/elements/1.1/"
   xmlns:cc="http://creativecommons.org/ns#"
   xmlns:rdf="http://www.w3.org/1999/02/22-rdf-syntax-ns#"
   xmlns:svg="http://www.w3.org/2000/svg"
   xmlns="http://www.w3.org/2000/svg"
   xmlns:sodipodi="http://sodipodi.sourceforge.net/DTD/sodipodi-0.dtd"
   xmlns:inkscape="http://www.inkscape.org/namespaces/inkscape"
   width="500px"
   height="500px"
   viewBox="0 0 500 500"
   version="1.1"
   id="svg30"
   sodipodi:docname="txt_white.svg"
   inkscape:version="1.0.2 (e86c870879, 2021-01-15)">
  <metadata
     id="metadata36">
    <rdf:RDF>
      <cc:Work
         rdf:about="">
        <dc:format>image/svg+xml</dc:format>
        <dc:type
           rdf:resource="http://purl.org/dc/dcmitype/StillImage" />
        <dc:title>ext-txt</dc:title>
      </cc:Work>
    </rdf:RDF>
  </metadata>
  <defs
     id="defs34" />
  <sodipodi:namedview
     pagecolor="#ffffff"
     bordercolor="#666666"
     borderopacity="1"
     objecttolerance="10"
     gridtolerance="10"
     guidetolerance="10"
     inkscape:pageopacity="0"
     inkscape:pageshadow="2"
     inkscape:window-width="1920"
     inkscape:window-height="1051"
     id="namedview32"
     showgrid="false"
     inkscape:zoom="1.43"
     inkscape:cx="250"
     inkscape:cy="194.05594"
     inkscape:window-x="0"
     inkscape:window-y="0"
     inkscape:window-maximized="1"
     inkscape:current-layer="ext-txt" />
  <title
     id="title26">ext-txt</title>
  <g
     id="ext-txt"
     stroke="none"
     stroke-width="1"
     fill="none"
     fill-rule="evenodd">
    <path
       d="m 445,85 c 27.61424,0 50,22.38576 50,50 v 230 c 0,27.61424 -22.38576,50 -50,50 v 0 H 55 C 27.385763,415 5,392.61424 5,365 V 135 C 5,107.38576 27.385762,85 55,85 Z m 0,30 H 55 c -10.930636,0 -19.813225,8.76873 -20,19.65551 V 365 c 0,10.93064 8.768729,19.81322 19.655511,19.99709 L 55,385 h 390 c 10.93064,0 19.81322,-8.76873 20,-19.65551 V 135 c 0,-10.93064 -8.76873,-19.81323 -19.65551,-19.99709 z m -268.3,60 v 28.125 h -43.65 v 121.95 H 100.875 V 203.125 H 57 V 175 Z m 38.85,0 34.425,51.3 33.975,-51.3 h 38.475 l -51.075,72.9 54.45,77.175 h -38.25 l -37.575,-54.9 -37.8,54.9 H 174.15 L 228.6,248.125 177.525,175 Z m 227.4,0 v 28.125 H 399.3 v 121.95 H 367.125 V 203.125 H 323.25 V 175 Z"
       id="Shape"
       fill="#000000"
       fill-rule="nonzero"
       sodipodi:nodetypes="sssccssssscscsccscsccccccccccccccccccccccccccccccccc"
       style="fill:#ffffff" />
  </g>
</svg>
